<svg width="21" height="20" viewBox="0 0 21 20" fill="none" xmlns="http://www.w3.org/2000/svg">
<g id="vuesax/bold/calendar">
<g id="calendar">
<path id="Vector" d="M14.7712 2.96675V1.66675C14.7712 1.32508 14.4879 1.04175 14.1462 1.04175C13.8045 1.04175 13.5212 1.32508 13.5212 1.66675V2.91675H8.10452V1.66675C8.10452 1.32508 7.82119 1.04175 7.47952 1.04175C7.13785 1.04175 6.85452 1.32508 6.85452 1.66675V2.96675C4.60452 3.17508 3.51285 4.51675 3.34619 6.50841C3.32952 6.75008 3.52952 6.95008 3.76285 6.95008H17.8629C18.1045 6.95008 18.3045 6.74175 18.2795 6.50841C18.1129 4.51675 17.0212 3.17508 14.7712 2.96675Z" fill="white"/>
<path id="Vector_2" d="M17.4779 8.20007H4.14461C3.68628 8.20007 3.31128 8.57507 3.31128 9.03341V14.1667C3.31128 16.6667 4.56128 18.3334 7.47795 18.3334H14.1446C17.0613 18.3334 18.3113 16.6667 18.3113 14.1667V9.03341C18.3113 8.57507 17.9363 8.20007 17.4779 8.20007ZM8.48628 15.1751C8.44461 15.2084 8.40295 15.2501 8.36128 15.2751C8.31128 15.3084 8.26128 15.3334 8.21128 15.3501C8.16128 15.3751 8.11128 15.3917 8.06128 15.4001C8.00295 15.4084 7.95295 15.4167 7.89461 15.4167C7.78628 15.4167 7.67795 15.3917 7.57795 15.3501C7.46961 15.3084 7.38628 15.2501 7.30295 15.1751C7.15295 15.0167 7.06128 14.8001 7.06128 14.5834C7.06128 14.3667 7.15295 14.1501 7.30295 13.9917C7.38628 13.9167 7.46961 13.8584 7.57795 13.8167C7.72795 13.7501 7.89461 13.7334 8.06128 13.7667C8.11128 13.7751 8.16128 13.7917 8.21128 13.8167C8.26128 13.8334 8.31128 13.8584 8.36128 13.8917C8.40295 13.9251 8.44461 13.9584 8.48628 13.9917C8.63628 14.1501 8.72795 14.3667 8.72795 14.5834C8.72795 14.8001 8.63628 15.0167 8.48628 15.1751ZM8.48628 12.2584C8.32795 12.4084 8.11128 12.5001 7.89461 12.5001C7.67795 12.5001 7.46128 12.4084 7.30295 12.2584C7.15295 12.1001 7.06128 11.8834 7.06128 11.6667C7.06128 11.4501 7.15295 11.2334 7.30295 11.0751C7.53628 10.8417 7.90295 10.7667 8.21128 10.9001C8.31961 10.9417 8.41128 11.0001 8.48628 11.0751C8.63628 11.2334 8.72795 11.4501 8.72795 11.6667C8.72795 11.8834 8.63628 12.1001 8.48628 12.2584ZM11.4029 15.1751C11.2446 15.3251 11.0279 15.4167 10.8113 15.4167C10.5946 15.4167 10.3779 15.3251 10.2196 15.1751C10.0696 15.0167 9.97795 14.8001 9.97795 14.5834C9.97795 14.3667 10.0696 14.1501 10.2196 13.9917C10.5279 13.6834 11.0946 13.6834 11.4029 13.9917C11.5529 14.1501 11.6446 14.3667 11.6446 14.5834C11.6446 14.8001 11.5529 15.0167 11.4029 15.1751ZM11.4029 12.2584C11.3613 12.2917 11.3196 12.3251 11.2779 12.3584C11.2279 12.3917 11.1779 12.4167 11.1279 12.4334C11.0779 12.4584 11.0279 12.4751 10.9779 12.4834C10.9196 12.4917 10.8696 12.5001 10.8113 12.5001C10.5946 12.5001 10.3779 12.4084 10.2196 12.2584C10.0696 12.1001 9.97795 11.8834 9.97795 11.6667C9.97795 11.4501 10.0696 11.2334 10.2196 11.0751C10.2946 11.0001 10.3863 10.9417 10.4946 10.9001C10.8029 10.7667 11.1696 10.8417 11.4029 11.0751C11.5529 11.2334 11.6446 11.4501 11.6446 11.6667C11.6446 11.8834 11.5529 12.1001 11.4029 12.2584ZM14.3196 15.1751C14.1613 15.3251 13.9446 15.4167 13.7279 15.4167C13.5113 15.4167 13.2946 15.3251 13.1363 15.1751C12.9863 15.0167 12.8946 14.8001 12.8946 14.5834C12.8946 14.3667 12.9863 14.1501 13.1363 13.9917C13.4446 13.6834 14.0113 13.6834 14.3196 13.9917C14.4696 14.1501 14.5613 14.3667 14.5613 14.5834C14.5613 14.8001 14.4696 15.0167 14.3196 15.1751ZM14.3196 12.2584C14.2779 12.2917 14.2363 12.3251 14.1946 12.3584C14.1446 12.3917 14.0946 12.4167 14.0446 12.4334C13.9946 12.4584 13.9446 12.4751 13.8946 12.4834C13.8363 12.4917 13.7779 12.5001 13.7279 12.5001C13.5113 12.5001 13.2946 12.4084 13.1363 12.2584C12.9863 12.1001 12.8946 11.8834 12.8946 11.6667C12.8946 11.4501 12.9863 11.2334 13.1363 11.0751C13.2196 11.0001 13.3029 10.9417 13.4113 10.9001C13.5613 10.8334 13.7279 10.8167 13.8946 10.8501C13.9446 10.8584 13.9946 10.8751 14.0446 10.9001C14.0946 10.9167 14.1446 10.9417 14.1946 10.9751C14.2363 11.0084 14.2779 11.0417 14.3196 11.0751C14.4696 11.2334 14.5613 11.4501 14.5613 11.6667C14.5613 11.8834 14.4696 12.1001 14.3196 12.2584Z" fill="white"/>
</g>
</g>
</svg>
