<svg width="63" height="62" viewBox="0 0 63 62" fill="none" xmlns="http://www.w3.org/2000/svg">
<g id="Logotype">
<g id="Group">
<path id="Vector" d="M30.0625 55.7637L30.0625 46.9506C30.0625 39.2523 23.8218 33.0117 16.1236 33.0117L7.31049 33.0117C8.21146 45.1619 17.9123 54.8628 30.0625 55.7637Z" fill="white"/>
<path id="Vector_2" d="M7.30658 29.3126L16.1197 29.3126C23.8179 29.3126 30.0586 23.0719 30.0586 15.3736L30.0586 6.56055C17.9084 7.46144 8.20755 17.1624 7.30658 29.3126Z" fill="white"/>
<path id="Vector_3" d="M33.7636 55.7637C45.9138 54.8628 55.6147 45.1619 56.5156 33.0117L47.7025 33.0117C40.0043 33.0117 33.7636 39.2523 33.7636 46.9506L33.7636 55.7637Z" fill="white"/>
<path id="Vector_4" d="M56.5156 29.3126C55.6147 17.1624 45.9138 7.46144 33.7636 6.56055L33.7636 15.3736C33.7636 23.0719 40.0043 29.3126 47.7025 29.3126L56.5156 29.3126Z" fill="white"/>
</g>
</g>
</svg>
