<svg width="19" height="14" viewBox="0 0 19 14" fill="none" xmlns="http://www.w3.org/2000/svg">
<g id="3 User">
<path id="3 Friends" fill-rule="evenodd" clip-rule="evenodd" d="M13.2791 3.86063C13.2791 5.8187 11.7181 7.38875 9.77132 7.38875C7.82456 7.38875 6.26358 5.8187 6.26358 3.86063C6.26358 1.90181 7.82456 0.333252 9.77132 0.333252C11.7181 0.333252 13.2791 1.90181 13.2791 3.86063ZM9.7705 13.6665C6.91118 13.6665 4.46971 13.2132 4.46971 11.4C4.46971 9.58603 6.89551 9.11622 9.7705 9.11622C12.6298 9.11622 15.0713 9.56952 15.0713 11.3835C15.0713 13.1967 12.6455 13.6665 9.7705 13.6665ZM14.7767 3.92435C14.7767 4.92252 14.479 5.8524 13.9567 6.62542C13.903 6.70498 13.9507 6.8123 14.0455 6.82881C14.1761 6.85132 14.3111 6.86408 14.4484 6.86784C15.8176 6.90386 17.0466 6.01751 17.3861 4.68311C17.889 2.70103 16.4123 0.921579 14.532 0.921579C14.3275 0.921579 14.132 0.943344 13.9418 0.98237C13.9157 0.988374 13.888 1.00038 13.8731 1.02365C13.8552 1.05217 13.8686 1.09044 13.8866 1.11521C14.4514 1.9115 14.7767 2.88265 14.7767 3.92435ZM17.0464 8.2604C17.9664 8.44128 18.5716 8.81053 18.8223 9.34714C19.0342 9.78768 19.0342 10.2988 18.8223 10.7386C18.4388 11.5709 17.2024 11.8381 16.7218 11.9071C16.6226 11.9221 16.5427 11.8358 16.5532 11.736C16.7987 9.42969 14.8459 8.33621 14.3408 8.08479C14.3192 8.07353 14.3147 8.05627 14.3169 8.04576C14.3184 8.03826 14.3274 8.02625 14.3438 8.024C15.4369 8.00373 16.6121 8.15383 17.0464 8.2604ZM5.17781 6.86767C5.31511 6.86392 5.44942 6.85191 5.58074 6.82865C5.67551 6.81213 5.72326 6.70481 5.66954 6.62526C5.14722 5.85224 4.8495 4.92236 4.8495 3.92419C4.8495 2.88249 5.17483 1.91133 5.73968 1.11505C5.75759 1.09028 5.77027 1.052 5.75311 1.02348C5.73819 1.00097 5.70983 0.988211 5.68446 0.982207C5.49344 0.94318 5.29795 0.921416 5.0935 0.921416C3.21315 0.921416 1.73648 2.70086 2.24015 4.68295C2.57965 6.01735 3.80859 6.9037 5.17781 6.86767ZM5.31109 8.04534C5.31333 8.05659 5.30885 8.0731 5.28796 8.08511C4.78205 8.33653 2.82933 9.43002 3.07482 11.7356C3.08527 11.8361 3.00617 11.9217 2.90693 11.9074C2.4264 11.8384 1.19 11.5712 0.806466 10.7389C0.593808 10.2984 0.593808 9.78801 0.806466 9.34746C1.05718 8.81085 1.66158 8.4416 2.5816 8.25998C3.01662 8.15416 4.19109 8.00406 5.28497 8.02432C5.30139 8.02657 5.3096 8.03858 5.31109 8.04534Z" fill="white"/>
</g>
</svg>
